<svg width="142" height="142" viewBox="0 0 142 142" fill="none" xmlns="http://www.w3.org/2000/svg">
<circle cx="70.5334" cy="70.5337" r="50" transform="rotate(-139.055 70.5334 70.5337)" fill="white"/>
<path d="M95.1729 102.052C98.5734 106.404 97.8297 112.795 92.889 115.263C84.9983 119.205 76.1477 121.016 67.2285 120.424C54.9578 119.608 43.4181 114.299 34.8152 105.511C26.2122 96.7237 21.1496 85.0738 20.595 72.7886C20.0404 60.5034 24.0328 48.4447 31.8089 38.9175C39.585 29.3904 50.5994 23.0632 62.7467 21.1454C74.894 19.2276 87.322 21.8537 97.655 28.5218C107.988 35.1898 115.501 45.432 118.758 57.2905C121.126 65.9101 121.124 74.9442 118.843 83.4647C117.415 88.7997 111.303 90.8086 106.358 88.3489L101.862 86.1127C96.9177 83.653 95.1383 77.5754 95.4765 72.0629C95.6434 69.3419 95.3653 66.5899 94.6312 63.9176C93.004 57.9933 89.2505 52.8764 84.0883 49.5452C78.9261 46.2139 72.7172 44.902 66.6487 45.8601C60.5801 46.8182 55.0774 49.9792 51.1926 54.7388C47.3078 59.4984 45.3133 65.5227 45.5903 71.6602C45.8674 77.7977 48.3966 83.6178 52.6945 88.008C56.9924 92.3982 62.7575 95.0505 68.8877 95.4579C71.6529 95.6417 74.4048 95.3629 77.0372 94.6543C82.3702 93.2186 88.681 93.7443 92.0815 98.0961L95.1729 102.052Z" fill="#FFC8C8"/>
<path d="M98.1041 99.9595C101.89 103.98 101.738 110.412 97.0449 113.324C89.1907 118.198 80.0782 120.835 70.7044 120.84C61.3306 120.844 52.2156 118.216 44.3567 113.349C39.6612 110.442 39.5023 104.01 43.2849 99.9855L46.9019 96.1374C50.6845 92.1133 57.0188 92.1676 62.2069 94.0609C64.9023 95.0445 67.772 95.5601 70.6924 95.5587C73.6128 95.5573 76.4819 95.039 79.1764 94.0528C84.3628 92.1546 90.697 92.0943 94.4834 96.1149L98.1041 99.9595Z" fill="#FF7C7C"/>
<circle cx="70.6807" cy="70.8398" r="16" fill="#FF7C7C"/>
</svg>
